<?xml version="1.0" encoding="utf-8"?>
<!-- Generator: Adobe Illustrator 24.0.1, SVG Export Plug-In . SVG Version: 6.00 Build 0)  -->
<svg version="1.1" id="Layer_1" xmlns="http://www.w3.org/2000/svg" xmlns:xlink="http://www.w3.org/1999/xlink" x="0px" y="0px"
	 viewBox="0 0 150 35" style="enable-background:new 0 0 150 35;" xml:space="preserve">
<style type="text/css">
	.st0{fill:#444444;}
	.st1{fill:#EAEAEA;}
</style>
<g>
	<g>
		<path class="st0" d="M146.6,0.4c-1,0.1-9.2,0.6-9.2,0.6s-0.3-0.1-0.8,0.4c-0.4,0.5-25.2,28.5-25.2,28.5s-3.4,3.7-8.2,4.1l0,0h33.9
			l10.2-33C147.3,1,147.6,0.3,146.6,0.4z"/>
	</g>
	<g>
		<path class="st1" d="M122.3,26.7c-0.2,0.1-0.4,0.3-0.5,0.5c-0.1,0.3,0.2,0.6,0.5,0.8c0.4,0.2,0.9,0.3,1.8,0.3c1,0,1.5-0.2,1.5-0.2
			s0.2-0.6,0.4-1c0.2-0.4,0.5-1.1,0.7-1.5C124.8,25.7,123.3,26.1,122.3,26.7z"/>
		<path class="st1" d="M140.6,14.4c0,0-0.8,1-3.8,0.9c-2,0-3-0.6-5.4-0.7c-2.7,0-4.6,0.9-5.2,2.1c-0.3,0.6-1.8,4-1.8,4
			s0.8-0.9,2.2-1.3c1.9-0.6,3.7-0.5,5.5-0.2c1.3,0.2,2.1,0.5,3.3,0.4c1.1,0,1.7-0.3,2.1-0.5c0.6-0.3,1.1-0.8,1.8-1.9
			C139.9,16.5,140.5,14.8,140.6,14.4z M122,26c0.4-0.9,1-2.4,1.8-3.8c0.1-0.3,0.4-0.6,0.7-0.8c1-0.9,3.3-1.6,6.1-1.4
			c2,0.2,2.8,0.4,4,0.5c0.5,0,1.1,0.1,1.6,0c1.3-0.2,1.7-0.5,1.7-0.5s-0.8,2.1-2,3.4c-1.4,1.6-2.8,1.7-5.5,1.5
			c-3.9-0.4-6.6,0.1-8.1,1.1c-0.2,0.1-0.4,0.4-0.5,0.6C121.8,26.6,121.8,26.4,122,26z"/>
	</g>
	<path class="st0" d="M54.1,15.4H50c0,0.1,0,0.1,0.1,0.2c0.2,0.1,0.4,0.3,0.6,0.5C51,16.4,51,16.5,51,17v7.7h2.5v-6.2l0,0l5.5,6.2
		h2.2v-9.3h-3.5c0,0.1,0,0.2,0.1,0.2c0.2,0.1,0.4,0.3,0.6,0.5c0.2,0.2,0.3,0.3,0.3,0.8v3.6L54.1,15.4z M100.2,24.7l-2-3.3h-2.3v3.3
		h-2.8V17c0-0.5-0.1-0.6-0.2-0.8c-0.2-0.3-0.4-0.4-0.6-0.5c-0.1-0.1-0.2-0.1-0.2-0.2h7.2c2.1,0,3.6,1,3.6,2.9c0,1.5-0.7,2.3-2,2.8
		l2.2,3.5H100.2z M87.6,24.7V17c0-0.5-0.1-0.6-0.2-0.8c-0.2-0.3-0.4-0.4-0.6-0.5c-0.1-0.1-0.1-0.1-0.1-0.2h3.8v9.3h-2.9V24.7z
		 M83.2,24.7l-0.8-1.8h-4.7L77,24.7h-2.6l3.6-7.9c0-0.1,0.1-0.2,0.1-0.4c0-0.2-0.2-0.4-0.6-0.7c-0.1-0.1-0.1-0.1-0.1-0.3h4.7
		l4.3,9.3H83.2z M68.9,24.7H64V17c0-0.5-0.1-0.6-0.3-0.8c-0.2-0.3-0.4-0.4-0.6-0.5C63,15.5,63,15.5,63,15.4h5.8
		c3.4,0,5.2,1.8,5.2,4.6C74,22.7,72.4,24.7,68.9,24.7z M29.7,24.7V17c0-0.5-0.1-0.6-0.2-0.8c-0.2-0.3-0.4-0.4-0.6-0.5
		c-0.1-0.1-0.1-0.1-0.1-0.2h3.8v7.1H37v2.2h-7.3V24.7z M18.8,24.7V17c0-0.5-0.1-0.6-0.2-0.8c-0.2-0.3-0.4-0.4-0.6-0.5
		c-0.1-0.1-0.1-0.1-0.1-0.2h9.7v1.9h-5.9V19h4.4v1.9h-4.4v1.8h5.9v2C27.6,24.7,18.8,24.7,18.8,24.7z M13.1,25
		c-3.3,0-6.2-1.4-6.2-4.9c0-2.8,2.1-5.1,6.2-5.1c1.6,0,2.8,0.3,3.9,0.8L16.3,18c-0.6-0.4-1.7-0.8-3-0.8c-2.5,0-3.5,1.4-3.5,2.8
		c0,1.9,1.5,2.9,3.5,2.9c1.3,0,2.4-0.4,3.1-0.8l0.7,2C16.2,24.5,14.8,25,13.1,25z M2.7,24.7v-9.6c0-0.5-0.1-0.6-0.2-0.8
		C2.2,14,2,13.9,1.9,13.8c-0.1-0.1-0.1-0.1-0.1-0.2h3.8v11.1H2.7z M98.7,17.2h-2.8v2.3h3c0.9,0,1.4-0.4,1.4-1.2
		C100.3,17.8,100,17.2,98.7,17.2z M80.1,17.6l-1.6,3.5h3.1L80.1,17.6z M68.5,17.4h-1.7v5.2h1.7c2,0,2.7-0.9,2.7-2.6
		C71.2,18.2,70.3,17.4,68.5,17.4z M46.7,24.7l-0.8-1.8h-4.7l-0.8,1.8h-2.6l3.6-7.9c0-0.1,0.1-0.2,0.1-0.4c0-0.2-0.2-0.4-0.6-0.7
		c-0.1-0.1-0.1-0.1-0.1-0.3h4.7l4.3,9.3H46.7z M43.6,17.6L42,21.1h3.1L43.6,17.6z"/>
	<line class="st0" x1="43.5" y1="17.5" x2="43.5" y2="17.5"/>
</g>
</svg>
